<svg xmlns="http://www.w3.org/2000/svg" xmlns:xlink="http://www.w3.org/1999/xlink" width="96" height="18.017" viewBox="0 0 96 18.017">
  <defs>
    <clipPath id="clip-path">
      <path id="Path_3" data-name="Path 3" d="M139.94-2752.3a1.08,1.08,0,0,0,.938-.552,1.08,1.08,0,0,0-.018-1.088,2.767,2.767,0,0,0-.228-.318,2.76,2.76,0,0,0-2.206-.941,2.65,2.65,0,0,0-2.307,1.157,3.918,3.918,0,0,0-.621,1.742Zm1.274,2.086h-4.1a1.31,1.31,0,0,0-1.123.623,1.31,1.31,0,0,0-.051,1.283,3.272,3.272,0,0,0,.33.5,2.731,2.731,0,0,0,2.256,1.03,2.843,2.843,0,0,0,2.352-1.064,1.554,1.554,0,0,1,1.214-.576h2.444a5.687,5.687,0,0,1-1.661,2.62,6.172,6.172,0,0,1-4.31,1.538,6.057,6.057,0,0,1-4.475-1.78,6.661,6.661,0,0,1-1.927-4.909,6.681,6.681,0,0,1,2.08-5.2,5.794,5.794,0,0,1,4.069-1.475,6,6,0,0,1,3.739,1.182,5.874,5.874,0,0,1,1.764,2.182,2.854,2.854,0,0,1-.19,2.737,2.855,2.855,0,0,1-2.41,1.313Z" transform="translate(-132.164 2757.628)" fill="#fff"/>
    </clipPath>
    <clipPath id="clip-path-2">
      <path id="Path_2" data-name="Path 2" d="M58-2746.32h96.814V-2765H58Z" transform="translate(-58 2765)" fill="#fff"/>
    </clipPath>
    <clipPath id="clip-path-3">
      <path id="Path_6" data-name="Path 6" d="M68.787-2753.51H66a2.29,2.29,0,0,0-2.531-1.773,3.127,3.127,0,0,0-1.666.408,1.186,1.186,0,0,0-.623,1.034.984.984,0,0,0,.687.944,19.747,19.747,0,0,0,2.811.638,10.686,10.686,0,0,1,2.544.677,3.292,3.292,0,0,1,1.96,3.215,3.618,3.618,0,0,1-1.387,2.909,6.085,6.085,0,0,1-3.994,1.238,5.924,5.924,0,0,1-4.655-1.7A4.726,4.726,0,0,1,58-2748.63h2.913q.394,2.068,2.836,2.067a3.211,3.211,0,0,0,1.666-.382,1.339,1.339,0,0,0,.763-1.213,1.011,1.011,0,0,0-.483-.893,5.3,5.3,0,0,0-1.666-.473,11.856,11.856,0,0,1-4.21-1.3,3.108,3.108,0,0,1-1.527-2.719,3.685,3.685,0,0,1,.368-1.594,3.869,3.869,0,0,1,1.005-1.315,5.625,5.625,0,0,1,3.714-1.173,7.1,7.1,0,0,1,2.417.4,4.74,4.74,0,0,1,1.819,1.116,4.212,4.212,0,0,1,1.171,2.6" transform="translate(-58 2757.628)" fill="#fff"/>
    </clipPath>
    <clipPath id="clip-path-5">
      <path id="Path_9" data-name="Path 9" d="M77.527-2765H80.8l-.044,6.75a4.814,4.814,0,0,1,3.865-2.177,4.6,4.6,0,0,1,2.748.857,4.2,4.2,0,0,1,1.695,2.69,9.713,9.713,0,0,1,.158,1.926l.044,7.954H85.993l-.044-7.281a4.743,4.743,0,0,0-.4-2.083,2.075,2.075,0,0,0-2-1.188,2.617,2.617,0,0,0-2.248,1.135,2.514,2.514,0,0,0-.486,1.213,11.267,11.267,0,0,0-.066,1.319L80.8-2747H77.527Z" transform="translate(-77.527 2765)" fill="#fff"/>
    </clipPath>
    <clipPath id="clip-path-7">
      <path id="Path_12" data-name="Path 12" d="M119.775-2757.37h3.273v1.819a3.814,3.814,0,0,1,3.26-2.1,7.8,7.8,0,0,1,.867.066v2.823q-.342-.014-.591-.014a3.322,3.322,0,0,0-2.735,1.24,4.04,4.04,0,0,0-.8,2.624v6.686h-3.273Z" transform="translate(-119.775 2757.65)" fill="#fff"/>
    </clipPath>
    <clipPath id="clip-path-9">
      <path id="Path_15" data-name="Path 15" d="M106.96-2751.27a6.977,6.977,0,0,1-1.99.763,11.523,11.523,0,0,0-2.422.763,1.643,1.643,0,0,0-.989,1.437,1.291,1.291,0,0,0,.672,1.145,2.8,2.8,0,0,0,1.534.381,3.765,3.765,0,0,0,2.408-.75,1.867,1.867,0,0,0,.685-.979,4.141,4.141,0,0,0,.1-1.031Zm-6.115-2.251H99.062a4.9,4.9,0,0,1,.926-2.479q1.356-1.629,4.551-1.628,3.956,0,5.046,2.25a6.53,6.53,0,0,1,.457,2.76v5.341c0,.62.021,1.459.064,1.83a3.951,3.951,0,0,0,.367,1.184h-3.08l-.342-1.527a6.512,6.512,0,0,1-4.057,1.527,5.1,5.1,0,0,1-3.169-1.03,3.487,3.487,0,0,1-1.509-2.861,3.644,3.644,0,0,1,2.359-3.346,13.853,13.853,0,0,1,4.184-.99,3.592,3.592,0,0,0,1.571-.42,1.006,1.006,0,0,0,.4-.852,1.383,1.383,0,0,0-.66-1.207,2.932,2.932,0,0,0-1.647-.433,2.794,2.794,0,0,0-1.94.649,1.439,1.439,0,0,0-.337.432,1.562,1.562,0,0,1-1.4.8Z" transform="translate(-98.313 2757.629)" fill="#fff"/>
    </clipPath>
    <clipPath id="clip-path-11">
      <path id="Path_18" data-name="Path 18" d="M206.9-2759.02h1.041v1.991h-2.377v6.433a3.936,3.936,0,0,0,.139,1.319,1.231,1.231,0,0,0,1.252.634q.177,0,1.164-.051v2.321h-2.251a5.747,5.747,0,0,1-1.834-.2,2.409,2.409,0,0,1-1.492-1.865,12.422,12.422,0,0,1-.127-2.157v-5.547a.883.883,0,0,0-.881-.885h-.889v-1.991h1.77v-4.2h3.149v2.859a1.338,1.338,0,0,0,1.336,1.34" transform="translate(-200.645 2763.221)" fill="#fff"/>
    </clipPath>
    <clipPath id="clip-path-13">
      <path id="Path_21" data-name="Path 21" d="M167.978-2752.3a1.08,1.08,0,0,0,.938-.552,1.08,1.08,0,0,0-.018-1.088,2.672,2.672,0,0,0-.228-.318,2.759,2.759,0,0,0-2.206-.941,2.652,2.652,0,0,0-2.308,1.157,3.925,3.925,0,0,0-.621,1.742Zm1.275,2.086h-4.1a1.31,1.31,0,0,0-1.123.623,1.31,1.31,0,0,0-.051,1.283,3.213,3.213,0,0,0,.331.5,2.73,2.73,0,0,0,2.256,1.03,2.845,2.845,0,0,0,2.353-1.064,1.551,1.551,0,0,1,1.213-.576h2.444a5.686,5.686,0,0,1-1.661,2.62,6.175,6.175,0,0,1-4.311,1.538,6.057,6.057,0,0,1-4.475-1.78,6.662,6.662,0,0,1-1.926-4.909,6.683,6.683,0,0,1,2.079-5.2,5.793,5.793,0,0,1,4.069-1.475,6,6,0,0,1,3.739,1.182,5.864,5.864,0,0,1,1.764,2.182,2.853,2.853,0,0,1-.19,2.738,2.854,2.854,0,0,1-2.41,1.312Z" transform="translate(-160.202 2757.628)" fill="#fff"/>
    </clipPath>
    <clipPath id="clip-path-15">
      <path id="Path_24" data-name="Path 24" d="M189.656-2751.27a7.006,7.006,0,0,1-1.991.763,11.537,11.537,0,0,0-2.422.763,1.643,1.643,0,0,0-.989,1.437,1.29,1.29,0,0,0,.672,1.145,2.8,2.8,0,0,0,1.534.381,3.766,3.766,0,0,0,2.408-.75,1.863,1.863,0,0,0,.685-.979,4.142,4.142,0,0,0,.1-1.031Zm-6.115-2.251h-1.783a4.9,4.9,0,0,1,.926-2.479q1.356-1.629,4.551-1.628,3.956,0,5.046,2.25a6.541,6.541,0,0,1,.457,2.76v5.341c0,.62.021,1.459.063,1.83a3.97,3.97,0,0,0,.367,1.184h-3.08l-.343-1.527a6.508,6.508,0,0,1-4.057,1.527,5.1,5.1,0,0,1-3.169-1.031,3.485,3.485,0,0,1-1.509-2.861,3.644,3.644,0,0,1,2.359-3.346,13.868,13.868,0,0,1,4.183-.991,3.606,3.606,0,0,0,1.572-.42,1.006,1.006,0,0,0,.405-.852,1.383,1.383,0,0,0-.66-1.207,2.935,2.935,0,0,0-1.648-.433,2.791,2.791,0,0,0-1.939.649,1.444,1.444,0,0,0-.337.432,1.562,1.562,0,0,1-1.4.8Z" transform="translate(-181.009 2757.629)" fill="#fff"/>
    </clipPath>
  </defs>
  <g id="logo" transform="translate(305 -23)">
    <g id="layers" transform="translate(-305 23)">
      <g id="Group_5" data-name="Group 5" transform="translate(46.026 4.589)" clip-path="url(#clip-path)">
        <g id="Group_4" data-name="Group 4" transform="translate(-46.026 -4.589)" clip-path="url(#clip-path-2)">
          <path id="Path_1" data-name="Path 1" d="M127.164-2762.63h18.58v19.59h-18.58Z" transform="translate(-84.24 2764.104)" fill="#fff"/>
        </g>
      </g>
      <g id="Group_7" data-name="Group 7" transform="translate(0 4.589)" clip-path="url(#clip-path-3)">
        <g id="Group_6" data-name="Group 6" transform="translate(0 -4.589)" clip-path="url(#clip-path-2)">
          <path id="Path_4" data-name="Path 4" d="M53-2762.63H70.388v19.636H53Z" transform="translate(-56.103 2764.104)" fill="#fff"/>
        </g>
      </g>
      <g id="Group_9" data-name="Group 9" transform="translate(12.119)" clip-path="url(#clip-path-5)">
        <g id="Group_8" data-name="Group 8" transform="translate(-12.119)" clip-path="url(#clip-path-2)">
          <path id="Path_7" data-name="Path 7" d="M72.527-2770H90.472v24.225H72.527Z" transform="translate(-63.511 2766.887)" fill="#fff"/>
        </g>
      </g>
      <g id="Group_11" data-name="Group 11" transform="translate(38.338 4.576)" clip-path="url(#clip-path-7)">
        <g id="Group_10" data-name="Group 10" transform="translate(-38.338 -4.576)" clip-path="url(#clip-path-2)">
          <path id="Path_10" data-name="Path 10" d="M114.775-2762.65h13.607V-2743H114.775Z" transform="translate(-79.54 2764.113)" fill="#fff"/>
        </g>
      </g>
      <g id="Group_13" data-name="Group 13" transform="translate(25.019 4.589)" clip-path="url(#clip-path-9)">
        <g id="Group_12" data-name="Group 12" transform="translate(-25.019 -4.589)" clip-path="url(#clip-path-2)">
          <path id="Path_13" data-name="Path 13" d="M93.313-2762.63h18.364v19.592H93.313Z" transform="translate(-71.398 2764.105)" fill="#fff"/>
        </g>
      </g>
      <g id="Group_15" data-name="Group 15" transform="translate(88.526 1.108)" clip-path="url(#clip-path-11)">
        <g id="Group_14" data-name="Group 14" transform="translate(-88.526 -1.108)" clip-path="url(#clip-path-2)">
          <path id="Path_16" data-name="Path 16" d="M195.645-2768.22h13.68v23.073h-13.68Z" transform="translate(-110.222 2766.216)" fill="#fff"/>
        </g>
      </g>
      <g id="Group_17" data-name="Group 17" transform="translate(63.427 4.589)" clip-path="url(#clip-path-13)">
        <g id="Group_16" data-name="Group 16" transform="translate(-63.427 -4.589)" clip-path="url(#clip-path-2)">
          <path id="Path_19" data-name="Path 19" d="M155.2-2762.63h18.579v19.59H155.2Z" transform="translate(-94.878 2764.104)" fill="#fff"/>
        </g>
      </g>
      <g id="Group_19" data-name="Group 19" transform="translate(76.34 4.589)" clip-path="url(#clip-path-15)">
        <g id="Group_18" data-name="Group 18" transform="translate(-76.34 -4.589)" clip-path="url(#clip-path-2)">
          <path id="Path_22" data-name="Path 22" d="M176.009-2762.63h18.364v19.592H176.009Z" transform="translate(-102.772 2764.105)" fill="#fff"/>
        </g>
      </g>
    </g>
  </g>
</svg>
